<svg width="48" height="15" viewBox="0 0 48 15" fill="none" xmlns="http://www.w3.org/2000/svg">
<path d="M42.8571 6.42857C38.5714 6.42857 36.4286 0 30 0C23.5714 0 23.5714 4.28571 23.5714 4.28571C23.5714 4.28571 23.5714 0 17.1429 0C10.7143 0 8.57143 6.42857 4.28571 6.42857C2.14286 6.42857 0 4.28571 0 4.28571C0 4.28571 2.14286 15 10.7143 15C21.4286 15 23.5714 8.57143 23.5714 8.57143C23.5714 8.57143 25.7143 15 36.4286 15C45 15 47.1429 4.28571 47.1429 4.28571C47.1429 4.28571 45 6.42857 42.8571 6.42857Z" fill="#FF9000"/>
</svg>
